<?xml version="1.0" encoding="UTF-8" standalone="no"?>
<svg width="36px" height="36px" viewBox="0 0 36 36" version="1.1" xmlns="http://www.w3.org/2000/svg" xmlns:xlink="http://www.w3.org/1999/xlink">
    <!-- Generator: sketchtool 3.8.3 (29802) - http://www.bohemiancoding.com/sketch -->
    <title>42210529-4C6D-4F83-84EE-8D4B31E3E6E4</title>
    <desc>Created with sketchtool.</desc>
    <defs></defs>
    <g id="Page-1" stroke="none" stroke-width="1" fill="none" fill-rule="evenodd">
        <g id="account_list" transform="translate(-228.000000, -1179.000000)">
            <g id="Group-8" transform="translate(196.000000, 1146.000000)">
                <g id="Group-6" transform="translate(26.000000, 27.000000)">
                    <g id="icon_plus_gray">
                        <rect id="Rectangle-8" fill="#FFFFFF" opacity="0" x="0" y="0" width="48" height="48"></rect>
                        <path d="M26,22 L26,7.99970728 C26,6.88989258 25.1045695,6 24,6 C22.8877296,6 22,6.89529944 22,7.99970728 L22,22 L7.99970728,22 C6.88989258,22 6,22.8954305 6,24 C6,25.1122704 6.89529944,26 7.99970728,26 L22,26 L22,40.0002927 C22,41.1101074 22.8954305,42 24,42 C25.1122704,42 26,41.1047006 26,40.0002927 L26,26 L40.0002927,26 C41.1101074,26 42,25.1045695 42,24 C42,22.8877296 41.1047006,22 40.0002927,22 L26,22 Z" id="Combined-Shape" fill="#838C93"></path>
                    </g>
                </g>
            </g>
        </g>
    </g>
</svg>