<?xml version="1.0" encoding="UTF-8" standalone="no"?>
<svg width="31px" height="24px" viewBox="0 0 31 24" version="1.1" xmlns="http://www.w3.org/2000/svg" xmlns:xlink="http://www.w3.org/1999/xlink">
    <!-- Generator: sketchtool 3.8.3 (29802) - http://www.bohemiancoding.com/sketch -->
    <title>0C9F00B6-70A4-44D3-A47F-E3CF68B0CD07</title>
    <desc>Created with sketchtool.</desc>
    <defs></defs>
    <g id="Page-1" stroke="none" stroke-width="1" fill="none" fill-rule="evenodd">
        <g id="send_money" transform="translate(-215.000000, -1217.000000)">
            <g id="Group-4" transform="translate(0.000000, 224.000000)">
                <g id="button" transform="translate(0.000000, 954.000000)">
                    <g id="Group-6" transform="translate(205.000000, 26.000000)">
                        <g id="icon_send_white">
                            <rect id="Rectangle-204" x="0" y="0" width="48" height="49.7142857"></rect>
                            <path d="M34.0722375,23.0011697 C34.0492532,23.000392 34.0261704,23 34.0029953,23 L11.9970047,23 C10.8949789,23 10,23.8954305 10,25 C10,26.1122704 10.8940894,27 11.9970047,27 L34.0029953,27 C34.026174,27 34.049261,26.9996039 34.0722501,26.998818 L27.582314,33.4887538 C26.8027525,34.2683153 26.8047379,35.5326599 27.5857864,36.3137085 C28.3722803,37.1002024 29.6316103,37.0963117 30.4107412,36.3171809 L40.3171809,26.4107412 C40.7063844,26.0215376 40.9007795,25.511497 40.9006752,25.0010924 L40.9025525,24.996721 C40.9019251,24.4869397 40.706173,23.9782509 40.3171809,23.5892588 L30.4107412,13.6828191 C29.6311796,12.9032576 28.366835,12.9052429 27.5857864,13.6862915 C26.7992925,14.4727854 26.8031832,15.7321154 27.582314,16.5112462 L34.0722372,23.0011694 L34.0722375,23.0011697 Z M35.9987353,24.9276675 C35.9995761,24.9516673 36,24.9757804 36,25 C36,25.0242203 35.9995697,25.04834 35.9987163,25.0723519 L36.0710678,25 L35.9987357,24.9276679 L35.9987353,24.9276675 Z" id="Combined-Shape" fill="#FFFFFF"></path>
                        </g>
                    </g>
                </g>
            </g>
        </g>
    </g>
</svg>