<?xml version="1.0" encoding="UTF-8" standalone="no"?>
<svg width="32px" height="33px" viewBox="0 0 32 33" version="1.1" xmlns="http://www.w3.org/2000/svg" xmlns:xlink="http://www.w3.org/1999/xlink">
    <!-- Generator: sketchtool 3.8.3 (29802) - http://www.bohemiancoding.com/sketch -->
    <title>90C78E43-D923-44E6-B173-23211FF0F3EE</title>
    <desc>Created with sketchtool.</desc>
    <defs></defs>
    <g id="Page-1" stroke="none" stroke-width="1" fill="none" fill-rule="evenodd">
        <g id="wallet" transform="translate(-643.000000, -153.000000)">
            <g id="top" transform="translate(0.000000, 112.000000)">
                <g id="icon_update" transform="translate(636.000000, 32.000000)">
                    <polygon id="Shape" opacity="0.9" points="0 0 48 0 48 48 0 48"></polygon>
                    <path d="M32.0145414,34.4561751 C32.7933495,33.6773671 34.0523951,33.6737154 34.8388605,34.4601809 L34.8388605,34.4601809 C35.6198809,35.2412012 35.6267753,36.5006237 34.8392152,37.288176 C34.8392152,37.288176 34.7986772,37.3287865 34.7875643,37.3398013 C28.5351447,43.537012 18.4427841,43.5199486 12.2114617,37.2886262 C5.96304878,31.0402132 5.9630291,20.9095539 12.2114178,14.6611652 C18.4598064,8.41277657 28.5904658,8.41279625 34.8388787,14.6612092 L34.8429419,14.6652724 C35.6229592,15.4452896 35.6275684,16.7053382 34.8410745,17.4918321 L34.8410745,17.4918321 C34.0600259,18.2728807 32.7932266,18.2724114 32.0145148,17.4936995 L32.0104516,17.4896363 C27.3241419,12.8033266 19.7261474,12.8033118 15.0398559,17.4896033 C10.3535644,22.1758948 10.3535791,29.7738894 15.0398888,34.4601991 C19.7261986,39.1465088 27.3241931,39.1465235 32.0104846,34.460232 L32.0145414,34.4561751 L32.0145414,34.4561751 Z" id="Oval-50" fill="#19232B"></path>
                    <g id="Group-3" transform="translate(32.717514, 15.368272) rotate(-630.000000) translate(-32.717514, -15.368272) translate(26.717514, 9.368272)" fill="#19232B">
                        <rect id="Rectangle-97" x="6.57252031e-14" y="-3.55271368e-15" width="12" height="4" rx="2"></rect>
                        <rect id="Rectangle-97-Copy" transform="translate(10.000000, 6.000000) rotate(-90.000000) translate(-10.000000, -6.000000) " x="4" y="4" width="12" height="4" rx="2"></rect>
                    </g>
                </g>
            </g>
        </g>
    </g>
</svg>