<?xml version="1.0" encoding="UTF-8" standalone="no"?>
<svg width="45px" height="44px" viewBox="0 0 45 44" version="1.1" xmlns="http://www.w3.org/2000/svg" xmlns:xlink="http://www.w3.org/1999/xlink">
    <!-- Generator: sketchtool 3.8.3 (29802) - http://www.bohemiancoding.com/sketch -->
    <title>B9050DEF-177C-4A23-9A65-8E04545F301A</title>
    <desc>Created with sketchtool.</desc>
    <defs></defs>
    <g id="Page-1" stroke="none" stroke-width="1" fill="none" fill-rule="evenodd">
        <g id="wallet" transform="translate(-446.000000, -738.000000)">
            <g id="Group-9" transform="translate(0.000000, 556.000000)">
                <g id="Group-13-Copy" transform="translate(0.000000, 153.000000)">
                    <g id="Group-14" transform="translate(444.000000, 27.000000)">
                        <g id="Group-6">
                            <g id="icon_qr">
                                <rect id="Rectangle-8" fill="#FFFFFF" opacity="0" x="0" y="0" width="48" height="48"></rect>
                                <path d="M6,8.0085302 L6,8.0085302 L6,15.9914698 C6,17.0980496 6.8992496,18 8.0085302,18 L15.9914698,18 C17.0980496,18 18,17.1007504 18,15.9914698 L18,8.0085302 C18,6.90195036 17.1007504,6 15.9914698,6 L8.0085302,6 C6.90195036,6 6,6.8992496 6,8.0085302 L6,8.0085302 L6,8.0085302 Z M2,8.0085302 L2,8.0085302 C2,4.69021078 4.69270946,2 8.0085302,2 L15.9914698,2 C19.3097892,2 22,4.69270946 22,8.0085302 L22,15.9914698 C22,19.3097892 19.3072905,22 15.9914698,22 L8.0085302,22 C4.69021078,22 2,19.3072905 2,15.9914698 L2,8.0085302 L2,8.0085302 Z" id="Rectangle-545" fill="#838C93"></path>
                                <path d="M6,32.0085302 L6,32.0085302 L6,39.9914698 C6,41.0980496 6.8992496,42 8.0085302,42 L15.9914698,42 C17.0980496,42 18,41.1007504 18,39.9914698 L18,32.0085302 C18,30.9019504 17.1007504,30 15.9914698,30 L8.0085302,30 C6.90195036,30 6,30.8992496 6,32.0085302 L6,32.0085302 L6,32.0085302 Z M2,32.0085302 L2,32.0085302 C2,28.6902108 4.69270946,26 8.0085302,26 L15.9914698,26 C19.3097892,26 22,28.6927095 22,32.0085302 L22,39.9914698 C22,43.3097892 19.3072905,46 15.9914698,46 L8.0085302,46 C4.69021078,46 2,43.3072905 2,39.9914698 L2,32.0085302 L2,32.0085302 Z" id="Rectangle-545-Copy-2" fill="#838C93"></path>
                                <path d="M31,8.0085302 L31,8.0085302 L31,15.9914698 C31,17.0980496 31.8992496,18 33.0085302,18 L40.9914698,18 C42.0980496,18 43,17.1007504 43,15.9914698 L43,8.0085302 C43,6.90195036 42.1007504,6 40.9914698,6 L33.0085302,6 C31.9019504,6 31,6.8992496 31,8.0085302 L31,8.0085302 L31,8.0085302 Z M27,8.0085302 L27,8.0085302 C27,4.69021078 29.6927095,2 33.0085302,2 L40.9914698,2 C44.3097892,2 47,4.69270946 47,8.0085302 L47,15.9914698 C47,19.3097892 44.3072905,22 40.9914698,22 L33.0085302,22 C29.6902108,22 27,19.3072905 27,15.9914698 L27,8.0085302 L27,8.0085302 Z" id="Rectangle-545-Copy" fill="#838C93"></path>
                                <path d="M9,36 C9,34.3431458 10.3465171,33 12,33 C13.6568542,33 15,34.3465171 15,36 C15,37.6568542 13.6534829,39 12,39 C10.3431458,39 9,37.6534829 9,36 L9,36 Z M9,12 C9,10.3431458 10.3465171,9 12,9 C13.6568542,9 15,10.3465171 15,12 C15,13.6568542 13.6534829,15 12,15 C10.3431458,15 9,13.6534829 9,12 L9,12 Z M34,12 C34,10.3431458 35.3465171,9 37,9 C38.6568542,9 40,10.3465171 40,12 C40,13.6568542 38.6534829,15 37,15 C35.3431458,15 34,13.6534829 34,12 L34,12 Z" id="Combined-Shape" fill="#838C93"></path>
                                <path d="M28,30.0016655 C28,28.3438914 29.3390201,27 31.0016655,27 L32.9983345,27 C34.6561086,27 36,28.3390201 36,30.0016655 L36,31.9983345 C36,33.6561086 34.6609799,35 32.9983345,35 L31.0016655,35 C29.3438914,35 28,33.6609799 28,31.9983345 L28,30.0016655 L28,30.0016655 Z M38,30.0016655 C38,28.3438914 39.3390201,27 41.0016655,27 L42.9983345,27 C44.6561086,27 46,28.3390201 46,30.0016655 L46,31.9983345 C46,33.6561086 44.6609799,35 42.9983345,35 L41.0016655,35 C39.3438914,35 38,33.6609799 38,31.9983345 L38,30.0016655 L38,30.0016655 Z M38,40.0016655 C38,38.3438914 39.3390201,37 41.0016655,37 L42.9983345,37 C44.6561086,37 46,38.3390201 46,40.0016655 L46,41.9983345 C46,43.6561086 44.6609799,45 42.9983345,45 L41.0016655,45 C39.3438914,45 38,43.6609799 38,41.9983345 L38,40.0016655 L38,40.0016655 Z" id="Combined-Shape" fill="#838C93"></path>
                            </g>
                        </g>
                    </g>
                </g>
            </g>
        </g>
    </g>
</svg>