<?xml version="1.0" encoding="UTF-8" standalone="no"?>
<svg width="45px" height="38px" viewBox="0 0 45 38" version="1.1" xmlns="http://www.w3.org/2000/svg" xmlns:xlink="http://www.w3.org/1999/xlink">
    <!-- Generator: sketchtool 3.8.3 (29802) - http://www.bohemiancoding.com/sketch -->
    <title>DBCF64F6-B748-4B64-B554-3D0857F51174</title>
    <desc>Created with sketchtool.</desc>
    <defs></defs>
    <g id="Page-1" stroke="none" stroke-width="1" fill="none" fill-rule="evenodd" opacity="0.3">
        <g id="account_list" transform="translate(-65.000000, -475.000000)">
            <g id="Group-2" transform="translate(32.000000, 419.000000)">
                <g id="Group-3">
                    <g id="icon_wallet_gray" transform="translate(32.000000, 51.000000)">
                        <polygon id="Shape" points="0 0 48 0 48 48 0 48"></polygon>
                        <path d="M1,17.0000405 C1,10.3722535 6.36553915,5 12.9929714,5 L31.0070286,5 C37.6322699,5 43,10.3666376 43,16.9951204 L43,18.5255676 L43,30.9960833 C43,37.6255787 37.6348953,43 31.0070286,43 L12.9929714,43 C6.37055996,43 1,37.621366 1,30.9999595 L1,17.0000405 Z M39,17 L43,17 L43,30 L39,30 L39,17 Z M5,17.0000405 L5,30.9999595 C5,35.4110973 8.57857521,39 12.9929714,39 L31.0070286,39 C35.4256661,39 39,35.4165244 39,30.9960833 L39,18.5255676 L39,16.9951204 C39,12.5740709 35.4214248,9 31.0070286,9 L12.9929714,9 C8.57433394,9 5,12.5817401 5,17.0000405 Z" id="Combined-Shape" fill="#838C93"></path>
                        <path d="M24,23.009763 L24,23.009763 L24,24.990237 C24,27.2122004 25.7885255,29 27.9947834,29 L38.0052166,29 C40.2082844,29 42,27.204768 42,24.990237 L42,23.009763 C42,20.7877996 40.2114745,19 38.0052166,19 L27.9947834,19 C25.7917156,19 24,20.795232 24,23.009763 L24,23.009763 Z M20,23.009763 L20,23.009763 C20,18.5900509 23.5786122,15 27.9947834,15 L38.0052166,15 C42.4253814,15 46,18.5834287 46,23.009763 L46,24.990237 C46,29.4099491 42.4213878,33 38.0052166,33 L27.9947834,33 C23.5746186,33 20,29.4165713 20,24.990237 L20,23.009763 Z" id="Rectangle-10" fill="#838C93"></path>
                        <path d="M30,27 C31.6568542,27 33,25.6568542 33,24 C33,22.3431458 31.6568542,21 30,21 C28.3431458,21 27,22.3431458 27,24 C27,25.6568542 28.3431458,27 30,27 Z" id="Oval-11" fill="#838C93"></path>
                    </g>
                </g>
            </g>
        </g>
    </g>
</svg>