<?xml version="1.0" encoding="UTF-8" standalone="no"?>
<svg width="36px" height="36px" viewBox="0 0 36 36" version="1.1" xmlns="http://www.w3.org/2000/svg" xmlns:xlink="http://www.w3.org/1999/xlink">
    <!-- Generator: sketchtool 3.8.3 (29802) - http://www.bohemiancoding.com/sketch -->
    <title>867DB9B7-0BE6-4F8E-870A-D023CF1F954F</title>
    <desc>Created with sketchtool.</desc>
    <defs></defs>
    <g id="Page-1" stroke="none" stroke-width="1" fill="none" fill-rule="evenodd">
        <g id="send_money" transform="translate(-509.000000, -418.000000)">
            <g id="Group-4" transform="translate(0.000000, 224.000000)">
                <g id="scan" transform="translate(503.000000, 188.000000)">
                    <g id="scan_blue">
                        <rect id="Rectangle-8" fill="#FFFFFF" opacity="0" x="0" y="0" width="48" height="48"></rect>
                        <path d="M6.00000208,8.00292984 C6.00000069,8.0019534 6,8.00097679 6,8 C6,7.44868797 6.22347575,6.94947668 6.58521387,6.58770008 C6.94562638,6.22372317 7.44484439,6 8,6 C8.00097677,6 8.00195337,6.0000007 8.00292981,6.0000021 C8.00390529,6.00000069 8.00488189,6 8.00585866,6 L17.9941413,6 C19.1019465,6 20,6.88772964 20,8 C20,9.1045695 19.1029399,10 17.9941413,10 L10,10 L10,17.9941413 C10,19.1019465 9.11227036,20 8,20 C6.8954305,20 6,19.1029399 6,17.9941413 L6,8.00585866 C6,8.00488189 6.00000069,8.00390529 6.00000207,8.00292885 L6.00000208,8.00292984 Z" id="Combined-Shape" fill="#7099E6"></path>
                        <path d="M39.9970702,6.00000208 C39.9980466,6.00000069 39.9990232,6 40,6 C40.551312,6 41.0505233,6.22347575 41.4122999,6.58521387 C41.7762768,6.94562638 42,7.44484439 42,8 C42,8.00097677 41.9999993,8.00195337 41.9999979,8.00292981 C41.9999993,8.00390529 42,8.00488189 42,8.00585866 L42,17.9941413 C42,19.1019465 41.1122704,20 40,20 C38.8954305,20 38,19.1029399 38,17.9941413 L38,10 L30.0058587,10 C28.8980535,10 28,9.11227036 28,8 C28,6.8954305 28.8970601,6 30.0058587,6 L39.9941413,6 C39.9951181,6 39.9960947,6.00000069 39.9970711,6.00000207 L39.9970702,6.00000208 Z" id="Combined-Shape" fill="#7099E6"></path>
                        <path d="M8.00292984,41.9999979 C8.0019534,41.9999993 8.00097679,42 8,42 C7.44868797,42 6.94947668,41.7765243 6.58770008,41.4147861 C6.22372317,41.0543736 6,40.5551556 6,40 C6,39.9990232 6.0000007,39.9980466 6.0000021,39.9970702 C6.00000069,39.9960947 6,39.9951181 6,39.9941413 L6,30.0058587 C6,28.8980535 6.88772964,28 8,28 C9.1045695,28 10,28.8970601 10,30.0058587 L10,38 L17.9941413,38 C19.1019465,38 20,38.8877296 20,40 C20,41.1045695 19.1029399,42 17.9941413,42 L8.00585866,42 C8.00488189,42 8.00390529,41.9999993 8.00292885,41.9999979 L8.00292984,41.9999979 Z" id="Combined-Shape" fill="#7099E6"></path>
                        <path d="M41.9999979,39.9970702 C41.9999993,39.9980466 42,39.9990232 42,40 C42,40.551312 41.7765243,41.0505233 41.4147861,41.4122999 C41.0543736,41.7762768 40.5551556,42 40,42 C39.9990232,42 39.9980466,41.9999993 39.9970702,41.9999979 C39.9960947,41.9999993 39.9951181,42 39.9941413,42 L30.0058587,42 C28.8980535,42 28,41.1122704 28,40 C28,38.8954305 28.8970601,38 30.0058587,38 L38,38 L38,30.0058587 C38,28.8980535 38.8877296,28 40,28 C41.1045695,28 42,28.8970601 42,30.0058587 L42,39.9941413 C42,39.9951181 41.9999993,39.9960947 41.9999979,39.9970711 L41.9999979,39.9970702 Z" id="Combined-Shape" fill="#7099E6"></path>
                    </g>
                </g>
            </g>
        </g>
    </g>
</svg>