<?xml version="1.0" encoding="UTF-8" standalone="no"?>
<svg width="37px" height="36px" viewBox="0 0 37 36" version="1.1" xmlns="http://www.w3.org/2000/svg" xmlns:xlink="http://www.w3.org/1999/xlink">
    <!-- Generator: sketchtool 3.8.3 (29802) - http://www.bohemiancoding.com/sketch -->
    <title>E68A5454-57A6-4E47-BEF7-2FE66D1DA3E1</title>
    <desc>Created with sketchtool.</desc>
    <defs></defs>
    <g id="Page-1" stroke="none" stroke-width="1" fill="none" fill-rule="evenodd">
        <g id="wallet" transform="translate(-118.000000, -744.000000)">
            <g id="Group-9" transform="translate(0.000000, 556.000000)">
                <g id="Group-13-Copy" transform="translate(0.000000, 153.000000)">
                    <g id="Group-15" transform="translate(112.000000, 29.000000)">
                        <g id="icon_copy_gray">
                            <polygon id="Shape" points="0 0 48 0 48 48 0 48"></polygon>
                            <path d="M20,38 L20,42 L14.0095579,42 C9.58973861,42 6,38.4187579 6,34.0031611 L6,13.9968389 C6,9.57844267 9.59305362,6 14.0095579,6 L20,6 L20,10 L14.0095579,10 C11.8003523,10 10,11.7894457 10,13.9968389 L10,34.0031611 C10,36.2058797 11.7951402,38 14.0095579,38 L20,38 Z" id="Combined-Shape" fill="#838C93"></path>
                            <path d="M17,13.9968389 L17,13.9968389 L17,34.0031611 C17,36.2058797 18.7951402,38 21.0095579,38 L34.9904421,38 C37.1996477,38 39,36.2105543 39,34.0031611 L39,13.9968389 C39,11.7941203 37.2048598,10 34.9904421,10 L21.0095579,10 C18.8003523,10 17,11.7894457 17,13.9968389 L17,13.9968389 Z M13,13.9968389 L13,13.9968389 C13,9.57844267 16.5930536,6 21.0095579,6 L34.9904421,6 C39.4102614,6 43,9.58124214 43,13.9968389 L43,34.0031611 C43,38.4215573 39.4069464,42 34.9904421,42 L21.0095579,42 C16.5897386,42 13,38.4187579 13,34.0031611 L13,13.9968389 Z" id="Rectangle-9-Copy" fill="#838C93"></path>
                            <path d="M21,20 C21,18.8954305 21.9019504,18 23.0085302,18 L30.9914698,18 C32.1007504,18 33,18.8877296 33,20 C33,21.1045695 32.0980496,22 30.9914698,22 L23.0085302,22 C21.8992496,22 21,21.1122704 21,20 L21,20 Z M21,28 C21,26.8954305 21.8970601,26 23.0058587,26 L32.9941413,26 C34.1019465,26 35,26.8877296 35,28 C35,29.1045695 34.1029399,30 32.9941413,30 L23.0058587,30 C21.8980535,30 21,29.1122704 21,28 L21,28 Z" id="Combined-Shape" fill="#838C93"></path>
                        </g>
                    </g>
                </g>
            </g>
        </g>
    </g>
</svg>